<svg xmlns="http://www.w3.org/2000/svg" xmlns:xlink="http://www.w3.org/1999/xlink"><defs><symbol id="Group-usage" viewBox="0 0 32 32"><path d="M32 16c0-8.838-7.163-16-16-16C7.162 0 0 7.162 0 16c0 7.988 5.85 14.606 13.5 15.806V20.625H9.437V16H13.5v-3.525c0-4.01 2.387-6.225 6.044-6.225 1.75 0 3.581.313 3.581.313V10.5h-2.019c-1.987 0-2.606 1.234-2.606 2.5v3h4.438l-.71 4.625H18.5v11.181C26.15 30.606 32 23.987 32 16z"/></symbol><symbol id="Instagram-usage" viewBox="0 0 32 32"><path fill-rule="evenodd" clip-rule="evenodd" d="M16 0C7.163 0 0 7.163 0 16s7.163 16 16 16 16-7.163 16-16S24.837 0 16 0zm-3.518 7.518c.91-.041 1.201-.051 3.519-.051h-.003c2.318 0 2.608.01 3.518.051.909.042 1.53.186 2.073.397a4.17 4.17 0 011.511.984c.475.474.767.95.985 1.511.21.543.354 1.163.397 2.072.04.91.051 1.2.051 3.518 0 2.318-.01 2.608-.051 3.518-.043.908-.187 1.528-.397 2.071a4.187 4.187 0 01-.985 1.512 4.19 4.19 0 01-1.51.985c-.543.21-1.164.354-2.072.396-.91.041-1.2.052-3.518.052-2.318 0-2.608-.01-3.518-.052-.909-.042-1.53-.185-2.072-.396a4.177 4.177 0 01-1.511-.985 4.181 4.181 0 01-.984-1.512c-.211-.543-.355-1.163-.397-2.071-.041-.91-.051-1.2-.051-3.518 0-2.317.01-2.608.051-3.519.04-.908.185-1.528.396-2.07.22-.562.51-1.038.985-1.512.475-.475.95-.766 1.512-.984.543-.211 1.163-.355 2.071-.397z" fill="#fff"/><path fill-rule="evenodd" clip-rule="evenodd" d="M15.235 9.004h.766c2.278 0 2.548.009 3.448.05.832.038 1.284.177 1.584.293.399.155.682.34.981.639.299.298.484.583.639.981.116.3.256.752.294 1.584.04.9.05 1.17.05 3.447 0 2.278-.01 2.548-.05 3.447-.039.832-.178 1.284-.294 1.584-.155.398-.34.682-.639.98a2.64 2.64 0 01-.98.639c-.301.117-.753.256-1.585.294-.9.04-1.17.05-3.448.05-2.279 0-2.549-.01-3.448-.05-.832-.039-1.284-.178-1.585-.294a2.643 2.643 0 01-.981-.639 2.645 2.645 0 01-.639-.98c-.117-.3-.256-.752-.294-1.584-.04-.9-.049-1.17-.049-3.449s.008-2.548.05-3.447c.037-.832.176-1.284.293-1.585.155-.398.34-.682.639-.98.298-.3.583-.484.981-.64.3-.117.753-.255 1.585-.294.787-.035 1.092-.046 2.682-.048v.002zm5.32 1.417a1.024 1.024 0 100 2.049 1.024 1.024 0 000-2.049zm-8.937 5.58a4.382 4.382 0 118.765 0 4.382 4.382 0 01-8.764 0z" fill="#fff"/><path d="M16 13.156a2.845 2.845 0 110 5.689 2.845 2.845 0 010-5.69z" fill="#fff"/></symbol><symbol id="Pointer-usage" viewBox="0 0 6 8"><path d="M0 0l6 4.03L0 8V0z" fill="#999"/></symbol><symbol id="Subtract-usage" viewBox="0 0 32 32"><path fill-rule="evenodd" clip-rule="evenodd" d="M32 16c0 8.837-7.163 16-16 16S0 24.837 0 16 7.163 0 16 0s16 7.163 16 16zm-21.286-1.466c-1.602.7-3.25 1.42-4.755 2.249-.787.575.259.983 1.239 1.365.156.06.31.12.455.18l.368.116c1.09.348 2.306.735 3.365.152 1.739-.999 3.38-2.154 5.02-3.308.537-.378 1.074-.756 1.615-1.128l.085-.055c.46-.299 1.496-.97 1.113-.045-.906.99-1.876 1.867-2.851 2.749a61.682 61.682 0 00-1.961 1.825c-.561.455-1.144 1.372-.516 2.01 1.447 1.013 2.916 2 4.385 2.989l1.432.964c.808.645 2.071.124 2.249-.885l.237-1.391a392.41 392.41 0 001.265-7.699c.052-.403.112-.806.172-1.21.145-.978.29-1.957.335-2.94-.117-.982-1.307-.766-1.969-.545-3.404 1.295-6.773 2.686-10.13 4.101-.38.169-.765.337-1.153.506z" fill="#fff"/></symbol><symbol id="Vector (1)-usage" viewBox="0 0 10 20"><path d="M1 1l8 9-8 9" stroke="#EEE" stroke-width="2" stroke-linecap="round" stroke-linejoin="round"/></symbol><symbol id="Vector-usage" viewBox="0 0 10 20"><path d="M9 1l-8 9 8 9" stroke="#EEE" stroke-width="2" stroke-linecap="round" stroke-linejoin="round"/></symbol><symbol id="checkbox-usage" viewBox="0 0 13 10"><path fill-rule="evenodd" clip-rule="evenodd" d="M1.625 3.333L0 5l4.875 5L13 1.667 11.375 0l-6.5 6.667-3.25-3.334z" fill="#121212"/></symbol><symbol id="location-usage" viewBox="0 0 17 21"><path d="M16 8.5c0 5.833-7.5 10.833-7.5 10.833S1 14.333 1 8.5a7.5 7.5 0 0115 0z" stroke="#999" stroke-width="2" stroke-linecap="round" stroke-linejoin="round"/><path d="M8.5 11a2.5 2.5 0 100-5 2.5 2.5 0 000 5z" stroke="#999" stroke-width="2" stroke-linecap="round" stroke-linejoin="round"/></symbol><symbol id="menu_btn-usage" viewBox="0 0 34 34"><path d="M5.567 16h19m-19-8h19m-19 16h19"/></symbol></defs><view id="view-Group-usage" viewBox="10 10 20 20"></view><view id="view-Instagram-usage" viewBox="50 10 20 20"></view><view id="view-Pointer-usage" viewBox="90 10 15 20"></view><view id="view-Subtract-usage" viewBox="130 10 20 20"></view><view id="view-Vector (1)-usage" viewBox="170 10 10 20"></view><view id="view-Vector-usage" viewBox="210 10 10 20"></view><view id="view-checkbox-usage" viewBox="250 10 26 20"></view><view id="view-location-usage" viewBox="310 10 16.19 20"></view><view id="view-menu_btn-usage" viewBox="350 10 20 20"></view><use id="Group-usage" xlink:href="#Group-usage" width="20" height="20" x="10" y="10"></use><use id="Instagram-usage" xlink:href="#Instagram-usage" width="20" height="20" x="50" y="10"></use><use id="Pointer-usage" xlink:href="#Pointer-usage" width="15" height="20" x="90" y="10"></use><use id="Subtract-usage" xlink:href="#Subtract-usage" width="20" height="20" x="130" y="10"></use><use id="Vector (1)-usage" xlink:href="#Vector (1)-usage" width="10" height="20" x="170" y="10"></use><use id="Vector-usage" xlink:href="#Vector-usage" width="10" height="20" x="210" y="10"></use><use id="checkbox-usage" xlink:href="#checkbox-usage" width="26" height="20" x="250" y="10"></use><use id="location-usage" xlink:href="#location-usage" width="16.19" height="20" x="310" y="10"></use><use id="menu_btn-usage" xlink:href="#menu_btn-usage" width="20" height="20" x="350" y="10"></use></svg>